<?xml version="1.0" encoding="UTF-8"?>
<svg width="656px" height="204px" viewBox="0 0 656 204" version="1.1" xmlns="http://www.w3.org/2000/svg" xmlns:xlink="http://www.w3.org/1999/xlink">
    <!-- Generator: Sketch 47 (45396) - http://www.bohemiancoding.com/sketch -->
    <title>zino</title>
    <desc>Created with Sketch.</desc>
    <defs>
        <linearGradient x1="100%" y1="100%" x2="2.83276945e-14%" y2="-2.22044605e-14%" id="linearGradient-1">
            <stop stop-color="#5E2563" offset="0%"></stop>
            <stop stop-color="#65799B" offset="100%"></stop>
        </linearGradient>
        <rect id="path-2" x="0" y="0" width="641" height="122" rx="10"></rect>
        <rect id="path-4" x="0" y="0" width="600" height="138" rx="10"></rect>
        <filter x="-8.2%" y="-46.7%" width="116.5%" height="171.7%" filterUnits="objectBoundingBox" id="filter-5">
            <feOffset dx="0" dy="-15" in="SourceAlpha" result="shadowOffsetOuter1"></feOffset>
            <feGaussianBlur stdDeviation="14" in="shadowOffsetOuter1" result="shadowBlurOuter1"></feGaussianBlur>
            <feColorMatrix values="0 0 0 0 0   0 0 0 0 0   0 0 0 0 0  0 0 0 0.353826993 0" type="matrix" in="shadowBlurOuter1"></feColorMatrix>
        </filter>
    </defs>
    <g id="HomePage" stroke="none" stroke-width="1" fill="none" fill-rule="evenodd">
        <g id="zino" transform="translate(7.000000, 0.000000)">
            <g id="Group-10">
                <mask id="mask-3" fill="white">
                    <use xlink:href="#path-2"></use>
                </mask>
                <use id="Mask" fill="url(#linearGradient-1)" xlink:href="#path-2"></use>
                <g opacity="0.255321558" mask="url(#mask-3)">
                    <g transform="translate(-52.000000, -92.000000)">
                        <g id="icons8-processor" transform="translate(190.000000, 0.000000)">
                            <path d="M34,0 C32.436,0 31.1666667,1.26933333 31.1666667,2.83333333 L31.1666667,11.3333333 L36.8333333,11.3333333 L36.8333333,2.83333333 C36.8333333,1.26933333 35.564,0 34,0 Z M56.6666667,0 C55.1026667,0 53.8333333,1.26933333 53.8333333,2.83333333 L53.8333333,11.3333333 L59.5,11.3333333 L59.5,2.83333333 C59.5,1.26933333 58.2306667,0 56.6666667,0 Z M79.3333333,0 C77.7693333,0 76.5,1.26933333 76.5,2.83333333 L76.5,11.3333333 L82.1666667,11.3333333 L82.1666667,2.83333333 C82.1666667,1.26933333 80.8973333,0 79.3333333,0 Z M102,0 C100.436,0 99.1666667,1.26933333 99.1666667,2.83333333 L99.1666667,11.3333333 L104.833333,11.3333333 L104.833333,2.83333333 C104.833333,1.26933333 103.564,0 102,0 Z M22.6666667,14.1666667 C18.0059189,14.1666667 14.1666667,18.0059189 14.1666667,22.6666667 L14.1666667,113.333333 C14.1666667,117.994082 18.0059189,121.833333 22.6666667,121.833333 L113.333333,121.833333 C117.994082,121.833333 121.833333,117.994082 121.833333,113.333333 L121.833333,22.6666667 C121.833333,18.0059189 117.994082,14.1666667 113.333333,14.1666667 L22.6666667,14.1666667 Z M22.6666667,19.8333333 L113.333333,19.8333333 C114.934252,19.8333333 116.166667,21.0657478 116.166667,22.6666667 L116.166667,113.333333 C116.166667,114.934252 114.934252,116.166667 113.333333,116.166667 L22.6666667,116.166667 C21.0657478,116.166667 19.8333333,114.934252 19.8333333,113.333333 L19.8333333,22.6666667 C19.8333333,21.0657478 21.0657478,19.8333333 22.6666667,19.8333333 Z M34,28.3333333 C30.8703864,28.3333333 28.3333333,30.8703864 28.3333333,34 C28.3333333,37.1296136 30.8703864,39.6666667 34,39.6666667 C37.1296136,39.6666667 39.6666667,37.1296136 39.6666667,34 C39.6666667,30.8703864 37.1296136,28.3333333 34,28.3333333 Z M2.83333333,31.1666667 C1.26933333,31.1666667 0,32.436 0,34 C0,35.564 1.26933333,36.8333333 2.83333333,36.8333333 L11.3333333,36.8333333 L11.3333333,31.1666667 L2.83333333,31.1666667 Z M124.666667,31.1666667 L124.666667,36.8333333 L133.166667,36.8333333 C134.7335,36.8333333 136,35.564 136,34 C136,32.436 134.7335,31.1666667 133.166667,31.1666667 L124.666667,31.1666667 Z M2.83333333,53.8333333 C1.26933333,53.8333333 0,55.1026667 0,56.6666667 C0,58.2306667 1.26933333,59.5 2.83333333,59.5 L11.3333333,59.5 L11.3333333,53.8333333 L2.83333333,53.8333333 Z M124.666667,53.8333333 L124.666667,59.5 L133.166667,59.5 C134.7335,59.5 136,58.2306667 136,56.6666667 C136,55.1026667 134.7335,53.8333333 133.166667,53.8333333 L124.666667,53.8333333 Z M2.83333333,76.5 C1.26933333,76.5 0,77.7693333 0,79.3333333 C0,80.8973333 1.26933333,82.1666667 2.83333333,82.1666667 L11.3333333,82.1666667 L11.3333333,76.5 L2.83333333,76.5 Z M124.666667,76.5 L124.666667,82.1666667 L133.166667,82.1666667 C134.7335,82.1666667 136,80.8973333 136,79.3333333 C136,77.7693333 134.7335,76.5 133.166667,76.5 L124.666667,76.5 Z M102,96.3333333 C98.8703864,96.3333333 96.3333333,98.8703864 96.3333333,102 C96.3333333,105.129614 98.8703864,107.666667 102,107.666667 C105.129614,107.666667 107.666667,105.129614 107.666667,102 C107.666667,98.8703864 105.129614,96.3333333 102,96.3333333 Z M2.83333333,99.1666667 C1.26933333,99.1666667 0,100.436 0,102 C0,103.564 1.26933333,104.833333 2.83333333,104.833333 L11.3333333,104.833333 L11.3333333,99.1666667 L2.83333333,99.1666667 Z M124.666667,99.1666667 L124.666667,104.833333 L133.166667,104.833333 C134.7335,104.833333 136,103.564 136,102 C136,100.436 134.7335,99.1666667 133.166667,99.1666667 L124.666667,99.1666667 Z M31.1666667,124.666667 L31.1666667,133.166667 C31.1666667,134.7335 32.4331667,136 34,136 C35.5668333,136 36.8333333,134.7335 36.8333333,133.166667 L36.8333333,124.666667 L31.1666667,124.666667 Z M53.8333333,124.666667 L53.8333333,133.166667 C53.8333333,134.7335 55.0998333,136 56.6666667,136 C58.2335,136 59.5,134.7335 59.5,133.166667 L59.5,124.666667 L53.8333333,124.666667 Z M76.5,124.666667 L76.5,133.166667 C76.5,134.7335 77.7665,136 79.3333333,136 C80.9001667,136 82.1666667,134.7335 82.1666667,133.166667 L82.1666667,124.666667 L76.5,124.666667 Z M99.1666667,124.666667 L99.1666667,133.166667 C99.1666667,134.7335 100.433167,136 102,136 C103.566833,136 104.833333,134.7335 104.833333,133.166667 L104.833333,124.666667 L99.1666667,124.666667 Z" id="Shape" fill="#FFFFFF" fill-rule="nonzero"></path>
                        </g>
                        <g id="icons8-c_plus_plus_logo" transform="translate(517.000000, 68.000000)">
                            <path d="M41.5,0 C40.0873321,0 38.6823852,0.355447099 37.4163881,1.06633932 L4.12992981,19.7890753 C1.59793576,21.2185883 0,23.8844336 0,26.7743641 L0,64.21984 C0,67.117499 1.59793576,69.7833443 4.12992981,71.2128554 L37.4163881,89.9278667 C39.9483822,91.3573778 43.0516178,91.3573778 45.5836119,89.9278667 L78.8700702,71.2128554 C81.4097852,69.7833443 83,67.1097704 83,64.21984 L83,26.7743641 C83,23.8844336 81.4020642,21.2185883 78.8700702,19.7890753 L45.5836119,1.06633932 C44.3176148,0.355447099 42.9126679,0 41.5,0 Z M41.5,3.95626974 C42.2410714,3.95626974 42.9898619,4.14171989 43.6537393,4.51262017 L76.9401977,23.2353581 C78.2602316,23.9848853 79.047619,25.3293998 79.047619,26.7743641 L79.047619,43.5189672 L75.0952381,43.5189672 L75.0952381,39.5626974 L71.1428571,39.5626974 L71.1428571,43.5189672 L67.1904762,43.5189672 L67.1904762,47.4752369 L71.1428571,47.4752369 L71.1428571,51.4315066 L75.0952381,51.4315066 L75.0952381,47.4752369 L79.047619,47.4752369 L79.047619,64.21984 C79.047619,65.6648062 78.2602316,67.0093188 76.9324787,67.7588459 L43.6537393,86.4815839 C42.3259864,87.2233845 40.6740136,87.2233845 39.3462607,86.4815839 L6.06752331,67.7588459 C4.73977033,67.0093188 3.95238095,65.6725328 3.95238095,64.21984 L3.95238095,26.7743641 C3.95238095,25.3293998 4.73977033,23.9848853 6.06752331,23.2353581 L39.3462607,4.51262017 C40.0101381,4.14171989 40.7589286,3.95626974 41.5,3.95626974 Z M41.5,19.7813487 C27.3501679,19.7813487 15.8095238,31.3333478 15.8095238,45.497102 C15.8095238,59.6608563 27.3501679,71.2128554 41.5,71.2128554 C49.5823108,71.2128554 57.085659,67.4420358 61.9335012,61.0517324 L63.2844132,59.2667762 L51.3191964,52.327849 L50.2384673,53.5023666 C48.007534,55.9441268 44.8425404,57.3659113 41.5,57.3659113 C34.94615,57.3659113 29.6428571,52.0574004 29.6428571,45.497102 C29.6428571,38.9368037 34.94615,33.6282928 41.5,33.6282928 C44.8425404,33.6282928 48.007534,35.0500772 50.2384673,37.4918375 L51.3191964,38.6663551 L63.2844132,31.7274298 L61.9335012,29.9424717 C57.085659,23.5521683 49.5823108,19.7813487 41.5,19.7813487 Z M41.5,23.7376185 C47.5752423,23.7376185 53.133278,26.3416471 57.2014519,30.6842723 L51.7823661,33.8214695 C48.9261543,31.3178926 45.375187,29.6720231 41.5,29.6720231 C32.8001297,29.6720231 25.6904762,36.7886719 25.6904762,45.497102 C25.6904762,54.2055322 32.8001297,61.322181 41.5,61.322181 C45.375187,61.322181 48.9261543,59.6763115 51.7823661,57.1727345 L57.2014519,60.3099318 C53.133278,64.652557 47.5752423,67.2565856 41.5,67.2565856 C29.4961863,67.2565856 19.7619048,57.5127265 19.7619048,45.497102 C19.7619048,33.4814776 29.4961863,23.7376185 41.5,23.7376185 Z M57.3095238,39.5626974 L57.3095238,43.5189672 L53.3571429,43.5189672 L53.3571429,47.4752369 L57.3095238,47.4752369 L57.3095238,51.4315066 L61.2619048,51.4315066 L61.2619048,47.4752369 L65.2142857,47.4752369 L65.2142857,43.5189672 L61.2619048,43.5189672 L61.2619048,39.5626974 L57.3095238,39.5626974 Z" id="Shape" fill="#FFFFFF" fill-rule="nonzero"></path>
                        </g>
                        <g id="icons8-memory_slot" transform="translate(411.464270, 179.433047) rotate(-105.000000) translate(-411.464270, -179.433047) translate(345.464270, 87.933047)">
                            <path d="M7.33333333,0 C3.32291667,0 0,3.316875 0,7.32 L0,175.68 C0,179.683125 3.32291667,183 7.33333333,183 L102.666667,183 C104.686197,183 106.333333,181.355858 106.333333,179.34 L106.333333,175.68 L124.666667,175.68 C128.677083,175.68 132,172.363125 132,168.36 L132,98.82 C132,96.8041415 130.352864,95.16 128.333333,95.16 L121,95.16 C118.9375,95.16 117.333333,93.55875 117.333333,91.5 C117.333333,89.44125 118.9375,87.84 121,87.84 L128.333333,87.84 C130.352864,87.84 132,86.1958585 132,84.18 L132,14.64 C132,10.636875 128.677083,7.32 124.666667,7.32 L106.333333,7.32 L106.333333,3.66 C106.333333,1.64414154 104.686197,0 102.666667,0 L7.33333333,0 Z M7.33333333,7.32 L99,7.32 L99,175.68 L7.33333333,175.68 L7.33333333,7.32 Z M28.6458333,14.64 C26.8984393,14.968829 25.6380227,16.5128915 25.6666667,18.3 L25.6666667,43.92 C25.6666667,45.9358585 27.313803,47.58 29.3333333,47.58 L77,47.58 C79.0195303,47.58 80.6666667,45.9358585 80.6666667,43.92 L80.6666667,18.3 C80.6666667,16.2841415 79.0195303,14.64 77,14.64 L29.3333333,14.64 C29.21875,14.64 29.1041667,14.64 28.9895833,14.64 C28.875,14.64 28.7604167,14.64 28.6458333,14.64 Z M106.333333,14.64 L124.666667,14.64 L124.666667,80.52 L121,80.52 C114.970053,80.52 110,85.4810165 110,91.5 C110,97.5189835 114.970053,102.48 121,102.48 L124.666667,102.48 L124.666667,168.36 L106.333333,168.36 L106.333333,161.04 L117.333333,161.04 L117.333333,153.72 L106.333333,153.72 L106.333333,146.4 L117.333333,146.4 L117.333333,139.08 L106.333333,139.08 L106.333333,131.76 L117.333333,131.76 L117.333333,124.44 L106.333333,124.44 L106.333333,117.12 L117.333333,117.12 L117.333333,109.8 L106.333333,109.8 L106.333333,73.2 L117.333333,73.2 L117.333333,65.88 L106.333333,65.88 L106.333333,58.56 L117.333333,58.56 L117.333333,51.24 L106.333333,51.24 L106.333333,43.92 L117.333333,43.92 L117.333333,36.6 L106.333333,36.6 L106.333333,29.28 L117.333333,29.28 L117.333333,21.96 L106.333333,21.96 L106.333333,14.64 Z M33,21.96 L73.3333333,21.96 L73.3333333,40.26 L33,40.26 L33,21.96 Z M28.6458333,54.9 C26.8984393,55.228829 25.6380227,56.7728915 25.6666667,58.56 L25.6666667,84.18 C25.6666667,86.1958585 27.313803,87.84 29.3333333,87.84 L77,87.84 C79.0195303,87.84 80.6666667,86.1958585 80.6666667,84.18 L80.6666667,58.56 C80.6666667,56.5441415 79.0195303,54.9 77,54.9 L29.3333333,54.9 C29.21875,54.9 29.1041667,54.9 28.9895833,54.9 C28.875,54.9 28.7604167,54.9 28.6458333,54.9 Z M33,62.22 L73.3333333,62.22 L73.3333333,80.52 L33,80.52 L33,62.22 Z M28.6458333,95.16 C26.8984393,95.488829 25.6380227,97.0328915 25.6666667,98.82 L25.6666667,124.44 C25.6666667,126.455858 27.313803,128.1 29.3333333,128.1 L77,128.1 C79.0195303,128.1 80.6666667,126.455858 80.6666667,124.44 L80.6666667,98.82 C80.6666667,96.8041415 79.0195303,95.16 77,95.16 L29.3333333,95.16 C29.21875,95.16 29.1041667,95.16 28.9895833,95.16 C28.875,95.16 28.7604167,95.16 28.6458333,95.16 Z M33,102.48 L73.3333333,102.48 L73.3333333,120.78 L33,120.78 L33,102.48 Z M28.6458333,135.42 C26.8984393,135.748829 25.6380227,137.292892 25.6666667,139.08 L25.6666667,164.7 C25.6666667,166.715858 27.313803,168.36 29.3333333,168.36 L77,168.36 C79.0195303,168.36 80.6666667,166.715858 80.6666667,164.7 L80.6666667,139.08 C80.6666667,137.064142 79.0195303,135.42 77,135.42 L29.3333333,135.42 C29.21875,135.42 29.1041667,135.42 28.9895833,135.42 C28.875,135.42 28.7604167,135.42 28.6458333,135.42 Z M33,142.74 L73.3333333,142.74 L73.3333333,161.04 L33,161.04 L33,142.74 Z" id="Shape" fill="#FFFFFF" fill-rule="nonzero"></path>
                        </g>
                        <g id="icons8-keyboard" transform="translate(628.000000, 81.000000)">
                            <path d="M89.61375,24 C89.61375,30.23918 88.1539849,32.9963943 86.268125,34.5246773 C84.3822651,36.0529623 81.5100776,36.5335047 78.25125,36.9825361 C74.9924224,37.4315675 71.3548448,37.8490898 68.340625,40.2596811 C65.8392974,42.2606312 64.11125,45.5692873 63.60625,50.5322703 L23.08,50.5322703 C18.6375776,50.5322703 15,54.1639137 15,58.5990888 L15,98.9331815 C15,103.368357 18.6375776,107 23.08,107 L107.92,107 C112.362422,107 116,103.368357 116,98.9331815 L116,58.5990888 C116,54.1639137 112.362422,50.5322703 107.92,50.5322703 L67.709375,50.5322703 C68.1433599,46.6249051 69.3585151,44.6160777 70.865625,43.4107821 C72.7435948,41.9061309 75.5526573,41.4649767 78.819375,41.0159453 C82.0860948,40.5669139 85.7789073,40.1257598 88.793125,37.6757783 C91.8073448,35.2257968 93.65375,30.9087884 93.65375,24 L89.61375,24 Z M23.08,54.5656796 L107.92,54.5656796 C110.17672,54.5656796 111.96,56.3460526 111.96,58.5990888 L111.96,98.9331815 C111.96,101.18622 110.17672,102.966591 107.92,102.966591 L23.08,102.966591 C20.8232823,102.966591 19.04,101.18622 19.04,98.9331815 L19.04,58.5990888 C19.04,56.3460526 20.8232823,54.5656796 23.08,54.5656796 Z M25.1,62.6324981 L25.1,70.6993166 L33.18,70.6993166 L33.18,62.6324981 L25.1,62.6324981 Z M37.22,62.6324981 L37.22,70.6993166 L45.3,70.6993166 L45.3,62.6324981 L37.22,62.6324981 Z M49.34,62.6324981 L49.34,70.6993166 L57.42,70.6993166 L57.42,62.6324981 L49.34,62.6324981 Z M61.46,62.6324981 L61.46,70.6993166 L69.54,70.6993166 L69.54,62.6324981 L61.46,62.6324981 Z M73.58,62.6324981 L73.58,70.6993166 L81.66,70.6993166 L81.66,62.6324981 L73.58,62.6324981 Z M85.7,62.6324981 L85.7,70.6993166 L93.78,70.6993166 L93.78,62.6324981 L85.7,62.6324981 Z M97.82,62.6324981 L97.82,70.6993166 L105.9,70.6993166 L105.9,62.6324981 L97.82,62.6324981 Z M25.1,74.7327259 L25.1,82.7995444 L39.24,82.7995444 L39.24,74.7327259 L25.1,74.7327259 Z M43.28,74.7327259 L43.28,82.7995444 L51.36,82.7995444 L51.36,74.7327259 L43.28,74.7327259 Z M55.4,74.7327259 L55.4,82.7995444 L63.48,82.7995444 L63.48,74.7327259 L55.4,74.7327259 Z M67.52,74.7327259 L67.52,82.7995444 L75.6,82.7995444 L75.6,74.7327259 L67.52,74.7327259 Z M79.64,74.7327259 L79.64,82.7995444 L87.72,82.7995444 L87.72,74.7327259 L79.64,74.7327259 Z M91.76,74.7327259 L91.76,82.7995444 L105.9,82.7995444 L105.9,74.7327259 L91.76,74.7327259 Z M25.1,86.8329537 L25.1,94.8997722 L33.18,94.8997722 L33.18,86.8329537 L25.1,86.8329537 Z M37.22,86.8329537 L37.22,94.8997722 L45.3,94.8997722 L45.3,86.8329537 L37.22,86.8329537 Z M49.34,86.8329537 L49.34,94.8997722 L81.66,94.8997722 L81.66,86.8329537 L49.34,86.8329537 Z M85.7,86.8329537 L85.7,94.8997722 L93.78,94.8997722 L93.78,86.8329537 L85.7,86.8329537 Z M97.82,86.8329537 L97.82,94.8997722 L105.9,94.8997722 L105.9,86.8329537 L97.82,86.8329537 Z" id="Shape" fill="#FFFFFF" fill-rule="nonzero" transform="translate(65.500000, 65.500000) rotate(-315.000000) translate(-65.500000, -65.500000) "></path>
                        </g>
                        <g id="icons8-arduino" transform="translate(106.885285, 135.640859) rotate(-345.000000) translate(-106.885285, -135.640859) translate(7.885285, 92.140859)">
                            <path d="M43.4341382,0 C19.5577014,0 0,19.5577014 0,43.4341382 C0,67.310575 19.5577014,86.8682764 43.4341382,86.8682764 C60.8787451,86.8682764 75.5161721,76.2565268 85.7577445,66.0149544 C91.6805815,60.0921174 95.9530437,54.3235229 98.7139505,50.3441148 C101.474857,54.3235229 105.747319,60.0921174 111.670156,66.0149544 C121.911729,76.2565268 136.549156,86.8682764 153.993763,86.8682764 C177.8702,86.8682764 197.427901,67.310575 197.427901,43.4341382 C197.427901,19.5577014 177.8702,0 153.993763,0 C136.549156,0 121.911729,10.6117497 111.670156,20.853322 C105.793593,26.7298859 101.474857,32.4213651 98.7139505,36.4007692 C95.9684707,32.4213651 91.803974,26.7144629 86.0045294,20.853322 C75.8555033,10.5963266 61.2334994,0 43.4341382,0 Z M43.4341382,7.89711604 C58.025296,7.89711604 71.0586213,17.0435795 80.4518696,26.5293742 C88.2872895,34.4419133 92.5443286,41.0434087 94.0250378,43.4341382 C92.4826324,45.8557138 87.9942314,52.4263631 80.0816923,60.3389022 C70.5804746,69.84012 57.5779954,78.9711604 43.4341382,78.9711604 C23.8764368,78.9711604 7.89711604,62.9918397 7.89711604,43.4341382 C7.89711604,23.8764368 23.8764368,7.89711604 43.4341382,7.89711604 Z M153.993763,7.89711604 C173.551464,7.89711604 189.530785,23.8764368 189.530785,43.4341382 C189.530785,62.9918397 173.551464,78.9711604 153.993763,78.9711604 C139.849906,78.9711604 126.847426,69.84012 117.346209,60.3389022 C109.43367,52.4263631 104.945269,45.8557138 103.402863,43.4341382 C104.945269,41.0125626 109.43367,34.4419133 117.346209,26.5293742 C126.847426,17.0281565 139.849906,7.89711604 153.993763,7.89711604 Z M150.045205,27.6399061 L150.045205,39.4855802 L138.199531,39.4855802 L138.199531,47.3826962 L150.045205,47.3826962 L150.045205,59.2283703 L157.942321,59.2283703 L157.942321,47.3826962 L169.787995,47.3826962 L169.787995,39.4855802 L157.942321,39.4855802 L157.942321,27.6399061 L150.045205,27.6399061 Z M27.6399061,39.4855802 L27.6399061,47.3826962 L59.2283703,47.3826962 L59.2283703,39.4855802 L27.6399061,39.4855802 Z" id="Shape" fill="#FFFFFF" fill-rule="nonzero"></path>
                        </g>
                    </g>
                </g>
            </g>
            <g id="Group-9" transform="translate(21.000000, 53.000000)">
                <g id="Rectangle-13">
                    <use fill="black" fill-opacity="1" filter="url(#filter-5)" xlink:href="#path-4"></use>
                    <use fill="#FCFCFC" fill-rule="evenodd" xlink:href="#path-4"></use>
                </g>
                <text id="𝔃ino" font-family="CambriaMath, Cambria Math" font-size="72" font-weight="normal" letter-spacing="0.1939173">
                    <tspan x="238.422712" y="95" fill="#F7648B">𝔃</tspan>
                    <tspan x="281.823661" y="95" font-family="Consolas" font-size="48" fill="#4A4A4A">ino</tspan>
                </text>
            </g>
        </g>
    </g>
</svg>